HIERARCHY
ROOT root
{
	OFFSET 0.000000 0.000000 0.000000
	CHANNELS 6 Xposition Yposition Zposition Zrotation Yrotation Xrotation
	JOINT lhip
	{
		OFFSET 0.058581 -0.082280 -0.017664
		CHANNELS 3 Zrotation Yrotation Xrotation
		JOINT lknee
		{
			OFFSET 0.043451 -0.386469 0.008037
			CHANNELS 3 Zrotation Yrotation Xrotation
			JOINT lankle
			{
				OFFSET -0.014790 -0.426874 -0.037428
				CHANNELS 3 Zrotation Yrotation Xrotation
				JOINT ltoe
				{
					OFFSET 0.041054 -0.060286 0.122042
					CHANNELS 3 Zrotation Yrotation Xrotation
					End Site
					{
						OFFSET 0.000000 0.000000 0.000000
					}
				}
			}
		}
	}
	JOINT rhip
	{
		OFFSET -0.060310 -0.090513 -0.013543
		CHANNELS 3 Zrotation Yrotation Xrotation
		JOINT rknee
		{
			OFFSET -0.043257 -0.383688 -0.004843
			CHANNELS 3 Zrotation Yrotation Xrotation
			JOINT rankle
			{
				OFFSET 0.019056 -0.420046 -0.034562
				CHANNELS 3 Zrotation Yrotation Xrotation
				JOINT rtoe
				{
					OFFSET -0.034840 -0.062106 0.130323
					CHANNELS 3 Zrotation Yrotation Xrotation
					End Site
					{
						OFFSET 0.000000 0.000000 0.000000
					}
				}
			}
		}
	}
	JOINT lowerback
	{
		OFFSET 0.004439 0.124404 -0.038385
		CHANNELS 3 Zrotation Yrotation Xrotation
		JOINT upperback
		{
			OFFSET 0.004488 0.137956 0.026820
			CHANNELS 3 Zrotation Yrotation Xrotation
			JOINT chest
			{
				OFFSET -0.002265 0.056032 0.002855
				CHANNELS 3 Zrotation Yrotation Xrotation
				JOINT lowerneck
				{
					OFFSET -0.013390 0.211636 -0.033468
					CHANNELS 3 Zrotation Yrotation Xrotation
					JOINT upperneck
					{
						OFFSET 0.010113 0.088937 0.050410
						CHANNELS 3 Zrotation Yrotation Xrotation
						End Site
						{
							OFFSET 0.000000 0.000000 0.000000
						}
					}
				}
				JOINT lclavicle
				{
					OFFSET 0.071702 0.114000 -0.018898
					CHANNELS 3 Zrotation Yrotation Xrotation
					JOINT lshoulder
					{
						OFFSET 0.122921 0.045205 -0.019046
						CHANNELS 3 Zrotation Yrotation Xrotation
						JOINT lelbow
						{
							OFFSET 0.255332 -0.015649 -0.022946
							CHANNELS 3 Zrotation Yrotation Xrotation
							JOINT lwrist
							{
								OFFSET 0.265709 0.012698 -0.007375
								CHANNELS 3 Zrotation Yrotation Xrotation
								End Site
								{
									OFFSET 0.000000 0.000000 0.000000
								}
							}
						}
					}
				}
				JOINT rclavicle
				{
					OFFSET -0.082954 0.112472 -0.023707
					CHANNELS 3 Zrotation Yrotation Xrotation
					JOINT rshoulder
					{
						OFFSET -0.113228 0.046853 -0.008472
						CHANNELS 3 Zrotation Yrotation Xrotation
						JOINT relbow
						{
							OFFSET -0.260127 -0.014369 -0.031269
							CHANNELS 3 Zrotation Yrotation Xrotation
							JOINT rwrist
							{
								OFFSET -0.269108 0.006794 -0.006027
								CHANNELS 3 Zrotation Yrotation Xrotation
								End Site
								{
									OFFSET 0.000000 0.000000 0.000000
								}
							}
						}
					}
				}
			}
		}
	}
}
MOTION
Frames: 10
Frame Time: 0.033333
0.424946 0.298311 0.980085 -89.930916 2.276790 93.784263 -1.444492 -1.061951 1.670189 -4.056744 -13.794362 5.082007 10.791267 15.152231 -21.062207 0.000000 -0.000000 0.000000 0.570272 3.498891 -17.162620 1.360669 -5.137829 40.718801 4.226298 -10.567323 -20.135800 0.000000 -0.000000 0.000000 -1.225923 0.119817 1.264043 2.955525 -0.675282 3.966939 0.152187 -0.390324 0.537729 3.032215 -1.683153 4.892928 1.395952 -6.026948 4.498227 -20.892511 -3.801664 4.976279 -65.946624 -0.738114 17.566864 5.504271 -36.789748 39.257400 10.765224 -1.745497 -2.755129 20.240585 2.141934 2.003932 64.404325 -3.816213 13.628642 -11.837040 39.214785 25.792650 -11.549863 1.687744 -9.564266 
0.416938 0.296131 0.979248 -89.063296 2.447912 93.246011 -1.201384 -0.542648 2.831117 -4.178434 -14.732727 4.999056 10.738525 14.932275 -21.596269 0.000000 -0.000000 0.000000 -0.068696 3.320342 -20.679134 1.448717 -6.690292 46.158719 4.270721 -10.831295 -20.477891 0.000000 -0.000000 0.000000 -1.109298 -0.801343 2.192103 3.189330 -0.909977 4.143347 0.077988 -0.822850 0.443956 3.269464 -1.378461 5.002145 1.180402 -6.066843 4.574614 -21.143115 -4.146823 5.204356 -65.457400 -0.527274 17.486829 5.424648 -36.417188 39.029132 10.811764 -1.616445 -2.615860 20.685637 2.189720 1.863689 64.040050 -3.902045 13.370077 -12.159849 39.060030 24.754573 -11.346942 1.511263 -9.103266 
0.407569 0.294291 0.979281 -88.141547 2.856234 92.985515 -0.699604 -0.043992 3.794124 -4.143297 -15.664985 4.932457 10.536337 14.653984 -22.082078 0.000000 -0.000000 0.000000 -0.487964 2.985372 -23.815761 1.527740 -8.173901 48.012562 3.960640 -11.811010 -20.789961 0.000000 -0.000000 0.000000 -0.743666 -1.619834 2.697721 3.428449 -1.103566 4.179455 0.079023 -1.282312 0.504079 3.298531 -1.358246 5.242087 1.128788 -6.138619 4.716181 -21.153179 -4.402194 5.441796 -65.428506 -0.692738 17.583360 5.315941 -35.551706 39.352755 10.862925 -1.493611 -2.702858 20.821679 1.953387 1.895468 63.864204 -4.121908 13.133133 -12.226395 38.726541 24.516076 -11.424512 1.398639 -9.164074 
0.396772 0.292929 0.979954 -87.218157 3.397395 92.758153 -0.014379 0.276048 4.797214 -4.066253 -16.492002 4.971884 10.039651 14.344527 -22.672550 0.000000 -0.000000 0.000000 -0.805547 2.791092 -26.264393 1.150096 -10.026032 46.864226 3.690093 -13.090151 -20.812680 0.000000 -0.000000 0.000000 -0.313424 -2.346249 3.245810 3.612254 -1.213262 4.054271 0.218836 -1.652987 0.515488 3.298728 -1.621619 5.629149 1.361095 -6.153193 4.562292 -21.001811 -4.553828 5.721354 -65.754095 -1.058273 17.679470 5.345655 -34.824065 39.508413 10.900458 -1.473775 -3.238141 20.635258 1.605093 2.041826 64.031976 -4.649206 12.836855 -12.305704 38.317953 24.439927 -11.261680 1.255712 -9.690540 
0.384923 0.292233 0.980374 -86.294668 3.967872 92.565467 0.838283 0.571417 5.779230 -4.078301 -17.178154 5.139313 9.412809 13.915225 -23.367590 0.000000 -0.000000 0.000000 -0.987383 2.685476 -28.078216 0.812636 -11.603747 43.418937 3.681691 -14.011013 -20.010306 0.000000 -0.000000 0.000000 0.067495 -2.987365 3.734554 3.740741 -1.359903 4.056503 0.425902 -1.956711 0.547521 3.427123 -1.988620 5.907296 1.829614 -6.104724 4.109080 -20.959775 -4.523935 6.010432 -65.913241 -1.680371 17.649674 5.317463 -34.589941 39.445205 10.838319 -1.450192 -3.821055 20.445872 1.260556 2.316768 64.130373 -5.194690 12.692058 -12.114845 37.805290 24.852264 -11.313542 1.088099 -10.190229 
0.372194 0.291990 0.979753 -85.467361 4.341439 92.497210 1.534721 0.943028 6.564243 -4.164578 -17.796722 5.545142 9.126706 13.535742 -24.004474 0.000000 -0.000000 0.000000 -1.160447 2.366641 -29.679484 1.033625 -12.151117 38.678714 3.875148 -14.255604 -17.635041 0.000000 -0.000000 0.000000 0.247092 -3.445529 4.103566 3.780707 -1.544502 4.058000 0.621127 -2.247976 0.632051 3.472685 -2.469772 5.992551 2.527258 -6.036330 3.679591 -20.946466 -4.441988 6.210025 -65.731610 -2.358655 17.635236 4.970581 -34.699338 39.674559 10.849430 -1.597970 -3.842951 20.329395 0.929623 2.563560 64.219476 -5.802158 12.778151 -11.844368 37.101923 25.352093 -11.380961 1.028123 -10.358298 
0.358072 0.292316 0.978008 -84.706273 4.578405 92.488558 2.207199 1.433082 7.352778 -4.311413 -18.320482 5.963831 8.902420 13.061523 -24.644785 0.000000 -0.000000 0.000000 -1.290631 1.988910 -30.915645 1.684458 -11.739953 33.196833 4.229276 -13.750077 -14.343569 0.000000 -0.000000 0.000000 0.333280 -3.740297 4.386441 3.746024 -1.756519 4.036310 0.777753 -2.530111 0.729816 3.390460 -2.960235 6.108636 3.345913 -6.100805 3.154473 -20.874895 -4.368625 6.325135 -65.468364 -3.048961 17.618957 4.529381 -35.015752 40.030140 10.894741 -1.765950 -3.615602 20.217891 0.481313 2.756456 64.421025 -6.456139 12.862315 -11.482234 36.302723 25.977472 -11.701490 0.794730 -10.459859 
0.342328 0.293230 0.975377 -83.966727 4.698727 92.539801 2.930269 2.068591 8.214856 -4.551598 -18.892209 6.329298 8.547718 12.421626 -25.275846 0.000000 -0.000000 0.000000 -1.289804 1.444018 -31.665705 2.325366 -10.803649 27.365894 4.883287 -12.759092 -12.379124 0.000000 -0.000000 0.000000 0.325921 -3.871373 4.497919 3.699669 -2.027602 4.106778 0.906655 -2.786741 0.877799 3.335021 -3.273043 6.152803 4.015631 -6.465819 2.613243 -20.742955 -4.306031 6.344628 -65.231471 -3.845406 17.603885 4.053636 -35.439336 40.553628 10.998420 -1.989211 -3.329876 20.097750 -0.008736 2.884473 64.841761 -7.100517 12.679191 -11.356945 35.533362 26.271769 -11.587555 0.441939 -10.755555 
0.325006 0.294596 0.972337 -83.203292 4.746098 92.650320 3.666101 2.687208 9.095544 -4.764884 -19.515664 6.760637 8.130146 11.716064 -25.826697 0.000000 -0.000000 0.000000 -1.172159 0.847730 -31.835133 2.790450 -9.912063 21.298886 5.465597 -11.839985 -10.084818 0.000000 -0.000000 0.000000 0.352149 -3.958932 4.363576 3.611022 -2.363104 4.414625 1.002173 -2.998675 0.960236 3.127158 -3.554361 6.196924 4.643728 -6.557050 2.024356 -20.712891 -4.371561 6.291139 -64.986247 -4.663596 17.605339 3.665192 -35.858408 40.904715 11.140591 -2.140429 -3.155680 20.041076 -0.380670 3.023897 65.332024 -7.745891 12.436454 -11.446867 34.769833 26.074884 -11.389976 -0.097044 -11.158081 
0.306041 0.296311 0.969144 -82.427586 4.708124 92.918764 4.315841 2.989390 9.783239 -5.024403 -20.073906 7.494641 7.684814 11.174791 -26.237374 0.000000 -0.000000 0.000000 -1.031348 0.348662 -31.561248 3.232907 -9.291799 15.273224 5.875914 -11.565395 -7.419423 0.000000 -0.000000 0.000000 0.393714 -4.003300 4.000745 3.508626 -2.721484 4.662931 1.073212 -3.247087 1.056207 2.727050 -3.912554 6.220119 5.127134 -6.437245 1.576080 -20.762833 -4.449386 6.305914 -64.863965 -5.514110 17.612084 3.506725 -36.148407 41.137281 11.256642 -2.316388 -2.927402 19.950897 -0.756583 3.173761 65.793122 -8.333078 12.285554 -11.477356 33.933573 26.030689 -11.175821 -0.585040 -11.616505 
